<mxfile host="app.diagrams.net" modified="2024-04-13T09:23:30.619Z" agent="Mozilla/5.0 (iPhone; CPU iPhone OS 17_3 like Mac OS X) AppleWebKit/605.1.15 (KHTML, like Gecko) Version/17.0 YaBrowser/24.1.9.283.10 SA/3 Mobile/15E148 Safari/604.1" version="24.2.5" etag="hAIBBYun1Ndj6EnomRwS" type="github">
  <diagram name="Страница — 1" id="Pzl9o14PtVr9nFI6pom4">
    <mxGraphModel>
      <root>
        <mxCell id="0" />
        <mxCell id="1" parent="0" />
      </root>
    </mxGraphModel>
  </diagram>
</mxfile>
